<svg width="114" height="25" viewBox="0 0 114 25" fill="none" xmlns="http://www.w3.org/2000/svg">
<path d="M12.9369 12.85L15.3369 18H17.7619L9.61191 0.499999H8.36191L0.961914 18H2.11191L4.31191 12.85H12.9369ZM12.4119 11.725H4.78691L8.38691 3.3H8.48691L12.4119 11.725ZM30.9725 18V9.9C30.9725 9.6 30.9475 9.19167 30.8975 8.675C30.8475 8.14167 30.6808 7.625 30.3975 7.125C30.1308 6.60833 29.6975 6.16667 29.0975 5.8C28.4975 5.41667 27.6475 5.225 26.5475 5.225C26.0641 5.20833 25.5225 5.30833 24.9225 5.525C24.3225 5.725 23.7308 6.11667 23.1475 6.7L22.7475 7.1H22.6475V5.5H20.5225V18H22.6475V10.275C22.6475 9.625 22.7391 9.06667 22.9225 8.6C23.1058 8.13333 23.3558 7.74167 23.6725 7.425C23.9891 7.10833 24.3475 6.875 24.7475 6.725C25.1641 6.575 25.5891 6.5 26.0225 6.5C26.7225 6.5 27.2641 6.64167 27.6475 6.925C28.0308 7.19167 28.3058 7.50833 28.4725 7.875C28.6558 8.24167 28.7641 8.60833 28.7975 8.975C28.8308 9.34167 28.8475 9.60833 28.8475 9.775V18H30.9725Z" fill="#FF0000"/>
<path d="M36.2988 18V0.499999H42.0488C43.4322 0.499999 44.6988 0.724999 45.8488 1.175C46.9988 1.60833 47.9822 2.21667 48.7988 3C49.6322 3.76667 50.2738 4.68333 50.7238 5.75C51.1905 6.81667 51.4238 7.96667 51.4238 9.2C51.4238 10.4833 51.1822 11.6667 50.6988 12.75C50.2322 13.8167 49.5822 14.7417 48.7488 15.525C47.9322 16.3083 46.9738 16.9167 45.8738 17.35C44.7738 17.7833 43.5988 18 42.3488 18H36.2988ZM38.5738 16.9H41.3238C42.6905 16.9 43.8488 16.675 44.7988 16.225C45.7655 15.7583 46.5572 15.1583 47.1738 14.425C47.7905 13.6917 48.2405 12.875 48.5238 11.975C48.8072 11.0583 48.9488 10.15 48.9488 9.25C48.9488 8.25 48.7822 7.29167 48.4488 6.375C48.1155 5.44167 47.6238 4.625 46.9738 3.925C46.3405 3.20833 45.5488 2.64167 44.5988 2.225C43.6488 1.80833 42.5572 1.6 41.3238 1.6H38.5738V16.9ZM65.265 12.3V11.775C65.265 10.6583 65.1067 9.69167 64.79 8.875C64.4734 8.05833 64.04 7.38333 63.49 6.85C62.9567 6.31667 62.3317 5.91667 61.615 5.65C60.8984 5.38333 60.14 5.25 59.34 5.25C58.49 5.25 57.7067 5.4 56.99 5.7C56.2734 5.98333 55.6484 6.40833 55.115 6.975C54.5817 7.525 54.165 8.2 53.865 9C53.565 9.78333 53.415 10.675 53.415 11.675C53.415 12.5083 53.54 13.325 53.79 14.125C54.0567 14.9083 54.4484 15.6167 54.965 16.25C55.4984 16.8667 56.165 17.3667 56.965 17.75C57.7817 18.1167 58.74 18.3 59.84 18.3C60.9067 18.3 61.89 18.1167 62.79 17.75C63.69 17.3667 64.4734 16.825 65.14 16.125L64.34 15.325C63.99 15.625 63.6567 15.9 63.34 16.15C63.04 16.4 62.7317 16.6083 62.415 16.775C62.0984 16.9417 61.765 17.075 61.415 17.175C61.0817 17.2583 60.7067 17.3 60.29 17.3C59.8234 17.3 59.3234 17.2333 58.79 17.1C58.2734 16.95 57.79 16.6917 57.34 16.325C56.89 15.9583 56.515 15.45 56.215 14.8C55.915 14.15 55.765 13.3167 55.765 12.3H65.265ZM55.765 11.3C55.765 10.6333 55.8317 9.99167 55.965 9.375C56.115 8.74167 56.3317 8.18333 56.615 7.7C56.915 7.21667 57.29 6.83333 57.74 6.55C58.19 6.25 58.7234 6.1 59.34 6.1C60.5234 6.1 61.44 6.56667 62.09 7.5C62.7567 8.41667 63.09 9.68333 63.09 11.3H55.765ZM76.4955 8.35C76.4955 7.9 76.3788 7.48333 76.1455 7.1C75.9122 6.71667 75.5872 6.39167 75.1705 6.125C74.7705 5.84167 74.2955 5.625 73.7455 5.475C73.2122 5.30833 72.6372 5.225 72.0205 5.225C71.4372 5.225 70.8872 5.3 70.3705 5.45C69.8705 5.6 69.4288 5.825 69.0455 6.125C68.6788 6.425 68.3872 6.8 68.1705 7.25C67.9538 7.68333 67.8455 8.19167 67.8455 8.775C67.8455 9.575 68.0288 10.2083 68.3955 10.675C68.7622 11.1417 69.2205 11.5167 69.7705 11.8C70.3205 12.0833 70.9122 12.3167 71.5455 12.5C72.1955 12.6667 72.7955 12.8583 73.3455 13.075C73.8955 13.275 74.3538 13.5333 74.7205 13.85C75.0872 14.1667 75.2705 14.6 75.2705 15.15C75.2705 15.3833 75.2288 15.625 75.1455 15.875C75.0788 16.125 74.9455 16.3583 74.7455 16.575C74.5455 16.775 74.2705 16.95 73.9205 17.1C73.5705 17.2333 73.1288 17.3 72.5955 17.3C71.9288 17.3 71.3622 17.2 70.8955 17C70.4455 16.7833 70.0705 16.5333 69.7705 16.25C69.4872 15.95 69.2788 15.65 69.1455 15.35C69.0288 15.05 68.9705 14.8 68.9705 14.6H67.3455C67.3455 15.0667 67.4538 15.525 67.6705 15.975C67.8872 16.4083 68.2122 16.8 68.6455 17.15C69.0955 17.5 69.6372 17.7833 70.2705 18C70.9205 18.2 71.6705 18.3 72.5205 18.3C74.0538 18.3 75.2038 17.9667 75.9705 17.3C76.7538 16.6167 77.1455 15.725 77.1455 14.625C77.1455 13.825 76.9538 13.1833 76.5705 12.7C76.2038 12.2167 75.7372 11.8333 75.1705 11.55C74.6038 11.25 73.9872 11.0083 73.3205 10.825C72.6705 10.6417 72.0622 10.45 71.4955 10.25C70.9288 10.05 70.4538 9.80833 70.0705 9.525C69.7038 9.24167 69.5205 8.84167 69.5205 8.325C69.5205 8.10833 69.5622 7.88333 69.6455 7.65C69.7288 7.4 69.8705 7.175 70.0705 6.975C70.2705 6.75833 70.5372 6.58333 70.8705 6.45C71.2038 6.3 71.6205 6.225 72.1205 6.225C72.6205 6.225 73.0538 6.3 73.4205 6.45C73.7872 6.58333 74.0955 6.75833 74.3455 6.975C74.5955 7.175 74.7788 7.4 74.8955 7.65C75.0122 7.9 75.0705 8.13333 75.0705 8.35H76.4955ZM81.3322 5.5V18H83.4572V5.5H81.3322ZM81.0322 1.55C81.0322 1.91667 81.1656 2.23333 81.4322 2.5C81.6989 2.76667 82.0156 2.9 82.3822 2.9C82.7489 2.9 83.0656 2.76667 83.3322 2.5C83.5989 2.23333 83.7322 1.91667 83.7322 1.55C83.7322 1.18333 83.5989 0.866666 83.3322 0.599999C83.0656 0.333333 82.7489 0.2 82.3822 0.2C82.0156 0.2 81.6989 0.333333 81.4322 0.599999C81.1656 0.866666 81.0322 1.18333 81.0322 1.55ZM97.1477 19.05C97.1477 19.8167 97.056 20.4667 96.8727 21C96.6893 21.5333 96.431 21.9667 96.0977 22.3C95.781 22.6333 95.3977 22.875 94.9477 23.025C94.5143 23.175 94.0477 23.25 93.5477 23.25C92.6643 23.25 91.9477 23.025 91.3977 22.575C90.8643 22.125 90.3727 21.525 89.9227 20.775L88.5477 22.025C88.6643 22.175 88.8477 22.3667 89.0977 22.6C89.3477 22.85 89.6643 23.0917 90.0477 23.325C90.431 23.575 90.8893 23.7833 91.4227 23.95C91.956 24.1333 92.5643 24.225 93.2477 24.225C94.5143 24.225 95.5393 24.0417 96.3227 23.675C97.106 23.325 97.7143 22.85 98.1477 22.25C98.581 21.65 98.8727 20.9583 99.0227 20.175C99.1893 19.4083 99.2727 18.6083 99.2727 17.775V5.5H97.1477V7.45H97.0477C96.8477 6.75 96.4143 6.20833 95.7477 5.825C95.0977 5.425 94.2393 5.225 93.1727 5.225C92.3227 5.225 91.5477 5.38333 90.8477 5.7C90.1477 6 89.5477 6.43333 89.0477 7C88.5477 7.56667 88.156 8.25 87.8727 9.05C87.606 9.85 87.4727 10.7417 87.4727 11.725C87.4727 12.725 87.606 13.6333 87.8727 14.45C88.156 15.25 88.5477 15.9417 89.0477 16.525C89.5477 17.0917 90.1393 17.5333 90.8227 17.85C91.5227 18.15 92.2977 18.3 93.1477 18.3C94.081 18.3 94.8893 18.1167 95.5727 17.75C96.2727 17.3833 96.7643 16.8 97.0477 16H97.1477V19.05ZM97.1477 12.675C97.1477 13.375 97.0477 13.9917 96.8477 14.525C96.6643 15.0583 96.4143 15.5083 96.0977 15.875C95.781 16.2417 95.4143 16.525 94.9977 16.725C94.581 16.9083 94.1477 17 93.6977 17C93.2977 17 92.8643 16.9333 92.3977 16.8C91.9477 16.65 91.5227 16.3833 91.1227 16C90.7393 15.6167 90.4143 15.075 90.1477 14.375C89.8977 13.675 89.7727 12.775 89.7727 11.675C89.7727 10.5083 89.931 9.58333 90.2477 8.9C90.5643 8.2 90.931 7.66667 91.3477 7.3C91.781 6.93333 92.2143 6.7 92.6477 6.6C93.0977 6.48333 93.4477 6.425 93.6977 6.425C94.2477 6.425 94.7393 6.55 95.1727 6.8C95.606 7.03333 95.9643 7.35833 96.2477 7.775C96.5477 8.175 96.7727 8.64167 96.9227 9.175C97.0727 9.70833 97.1477 10.2583 97.1477 10.825V12.675ZM113.712 18V9.9C113.712 9.6 113.687 9.19167 113.637 8.675C113.587 8.14167 113.42 7.625 113.137 7.125C112.87 6.60833 112.437 6.16667 111.837 5.8C111.237 5.41667 110.387 5.225 109.287 5.225C108.803 5.20833 108.262 5.30833 107.662 5.525C107.062 5.725 106.47 6.11667 105.887 6.7L105.487 7.1H105.387V5.5H103.262V18H105.387V10.275C105.387 9.625 105.478 9.06667 105.662 8.6C105.845 8.13333 106.095 7.74167 106.412 7.425C106.728 7.10833 107.087 6.875 107.487 6.725C107.903 6.575 108.328 6.5 108.762 6.5C109.462 6.5 110.003 6.64167 110.387 6.925C110.77 7.19167 111.045 7.50833 111.212 7.875C111.395 8.24167 111.503 8.60833 111.537 8.975C111.57 9.34167 111.587 9.60833 111.587 9.775V18H113.712Z" fill="white"/>
</svg>
